<?xml version="1.0" encoding="UTF-8"?>
<!-- Generator: visioncortex VTracer 0.6.12 -->
<svg version="1.1" xmlns="http://www.w3.org/2000/svg" width="1080" height="1080">
<path d="M0 0 C356.4 0 712.8 0 1080 0 C1080 356.4 1080 712.8 1080 1080 C723.6 1080 367.2 1080 0 1080 C0 723.6 0 367.2 0 0 Z " fill="#F3EFEC" transform="translate(0,0)"/>
<path d="M0 0 C187.721 0 187.721 0 224 29 C225.052 29.784 226.104 30.567 227.188 31.375 C248.37 51.146 257.937 79.257 259.155 107.616 C259.675 124.497 259.911 141.181 253.712 157.121 C252.779 159.585 252.059 162.099 251.312 164.625 C243.319 188.605 224.611 207.828 202.375 219.062 C196.447 222 196.447 222 193 222 C193 222.66 193 223.32 193 224 C172.262 230.792 151.981 233.63 130.191 233.391 C128.348 233.385 126.505 233.381 124.662 233.378 C117.962 233.358 111.262 233.302 104.562 233.25 C89.527 233.168 74.491 233.085 59 233 C59 282.83 59 332.66 59 384 C39.53 384 20.06 384 0 384 C0 257.28 0 130.56 0 0 Z " fill="#DC2929" transform="translate(230,560)"/>
<path d="M0 0 C19.14 0 38.28 0 58 0 C62.29 7.59 66.58 15.18 71 23 C72.98 26.3 74.96 29.6 77 33 C78.158 35.024 79.306 37.055 80.438 39.094 C81.023 40.144 81.608 41.195 82.211 42.277 C83.404 44.426 84.596 46.574 85.789 48.723 C88.95 54.396 92.18 60.009 95.543 65.564 C98.093 69.828 100.508 74.167 102.938 78.5 C107.716 86.991 112.554 95.444 117.438 103.875 C122.493 112.604 127.467 121.374 132.375 130.188 C135.97 136.643 139.58 143.073 143.438 149.375 C147.912 156.687 152.02 164.197 156.161 171.702 C161.24 180.901 166.465 190.006 171.791 199.064 C176.038 206.304 180.167 213.604 184.25 220.938 C188.485 228.543 192.778 236.102 197.228 243.585 C201.471 250.743 205.546 257.995 209.623 265.249 C210.149 266.182 210.674 267.116 211.215 268.078 C211.68 268.907 212.145 269.737 212.625 270.591 C214.047 273.082 215.524 275.541 217 278 C217.165 232.13 217.165 232.13 218 0 C236.48 0 254.96 0 274 0 C274 126.72 274 253.44 274 384 C254.86 384 235.72 384 216 384 C212.04 376.74 208.08 369.48 204 362 C201.709 358.003 199.412 354.023 197.062 350.062 C191.319 340.297 185.711 330.461 180.152 320.59 C175.635 312.569 171.058 304.582 166.484 296.593 C163.485 291.354 160.492 286.112 157.498 280.87 C155.012 276.519 152.525 272.169 150.035 267.82 C144.785 258.647 139.563 249.459 134.375 240.25 C130.69 233.71 126.965 227.201 123.125 220.75 C118.006 212.147 113.179 203.383 108.352 194.614 C105.16 188.827 101.897 183.106 98.47 177.455 C95.804 173.002 93.287 168.465 90.75 163.938 C86.942 157.167 83.101 150.423 79.125 143.75 C73.884 134.945 68.947 125.971 64 116.999 C63.382 115.878 62.763 114.757 62.125 113.602 C61.571 112.594 61.016 111.587 60.445 110.549 C59.371 108.655 58.208 106.812 57 105 C56.67 197.07 56.34 289.14 56 384 C37.52 384 19.04 384 0 384 C0 257.28 0 130.56 0 0 Z " fill="#DC2929" transform="translate(219,126)"/>
<path d="M0 0 C2.475 0.011 4.949 0 7.424 -0.013 C15.183 -0.019 22.252 0.185 29.781 2.261 C32.332 2.564 34.859 2.75 37.422 2.917 C40.113 3.309 42.27 4.226 44.781 5.261 C46.629 5.725 48.484 6.161 50.344 6.573 C79.861 13.845 107.201 34.892 122.907 60.789 C131.696 75.679 137.907 91.385 141.156 108.386 C141.324 109.262 141.491 110.138 141.664 111.041 C142.547 115.991 142.781 120.103 142.781 125.261 C121.661 125.261 100.541 125.261 78.781 125.261 C74.781 109.261 74.781 109.261 74.781 106.261 C74.121 106.261 73.461 106.261 72.781 106.261 C72.585 105.606 72.389 104.951 72.187 104.276 C66.548 87.068 54.032 72.537 38.094 64.011 C18.703 54.805 -5.634 52.633 -25.958 59.709 C-31.812 61.918 -37.172 64.53 -42.219 68.261 C-42.631 68.559 -42.631 68.559 -44.719 70.065 C-69.949 89.218 -82.4 121.11 -86.608 151.695 C-86.812 153.217 -87.016 154.739 -87.219 156.261 C-87.398 157.557 -87.577 158.852 -87.761 160.188 C-89.42 173.019 -89.577 185.774 -89.531 198.698 C-89.529 199.802 -89.527 200.905 -89.525 202.042 C-89.401 241.513 -85.207 284.116 -58.219 315.261 C-57.532 316.091 -56.845 316.921 -56.137 317.776 C-44.173 331.773 -27.847 340.03 -9.446 341.578 C-5.451 341.733 -1.466 341.787 2.531 341.761 C3.232 341.76 3.933 341.759 4.656 341.757 C15.702 341.708 25.561 340.667 35.781 336.261 C36.262 336.063 36.262 336.063 38.695 335.062 C57.321 326.592 67.384 309.548 74.781 291.261 C76.101 286.311 77.421 281.361 78.781 276.261 C99.901 276.261 121.021 276.261 142.781 276.261 C141.697 289.273 141.697 289.273 139.781 294.261 C139.346 295.849 138.924 297.44 138.511 299.034 C132.82 320.09 123.111 338.795 108.781 355.261 C108.209 355.97 107.636 356.679 107.047 357.409 C87.613 381.336 54.011 393.794 24.251 397.043 C20.26 397.395 16.282 397.443 12.277 397.464 C11.396 397.47 10.514 397.475 9.606 397.481 C7.749 397.491 5.893 397.497 4.037 397.501 C1.25 397.511 -1.536 397.542 -4.323 397.573 C-19.646 397.666 -33.4 395.75 -47.906 390.511 C-48.888 390.162 -49.869 389.814 -50.88 389.455 C-58.43 386.701 -65.374 383.506 -72.219 379.261 C-72.985 378.804 -73.75 378.348 -74.539 377.878 C-94.402 365.419 -109.51 347.299 -121.219 327.261 C-121.528 326.762 -121.528 326.762 -123.09 324.237 C-126.818 318.128 -129.67 312.052 -132.106 305.323 C-133.057 302.707 -134.108 300.186 -135.219 297.636 C-138.107 290.522 -139.755 282.965 -141.596 275.527 C-142.219 273.261 -142.219 273.261 -143.212 270.509 C-144.4 266.676 -144.966 262.863 -145.473 258.897 C-145.579 258.106 -145.684 257.315 -145.793 256.499 C-146.128 253.983 -146.455 251.466 -146.781 248.948 C-147.004 247.269 -147.228 245.59 -147.451 243.911 C-148.054 239.363 -148.653 234.814 -149.219 230.261 C-149.266 229.892 -149.266 229.892 -149.506 228.029 C-150.147 222.767 -150.366 217.598 -150.352 212.3 C-150.353 211.47 -150.354 210.64 -150.355 209.785 C-150.355 208.035 -150.354 206.285 -150.349 204.536 C-150.344 201.927 -150.349 199.319 -150.356 196.71 C-150.366 179.237 -149.645 162.173 -146.594 144.948 C-146.464 144.198 -146.335 143.449 -146.201 142.676 C-144.087 130.544 -141.164 118.935 -136.959 107.341 C-135.989 104.614 -135.177 101.845 -134.344 99.073 C-126.742 76.686 -113.952 56.833 -97.219 40.261 C-96.498 39.494 -95.778 38.727 -95.035 37.937 C-88.405 30.985 -81.183 25.551 -73.219 20.261 C-72.376 19.695 -71.533 19.129 -70.664 18.546 C-57.632 10.275 -43.227 5.458 -28.219 2.261 C-27.364 2.072 -26.509 1.884 -25.628 1.69 C-17.09 0.023 -8.664 -0.045 0 0 Z " fill="#DB2828" transform="translate(723.218994140625,552.7392578125)"/>
<path d="M0 0 C73.59 0 147.18 0 223 0 C223 17.16 223 34.32 223 52 C195.94 52 168.88 52 141 52 C141 144.73 141 237.46 141 333 C168.39 333 195.78 333 224 333 C224 349.83 224 366.66 224 384 C149.75 384 75.5 384 -1 384 C-1 367.17 -1 350.34 -1 333 C26.72 333 54.44 333 83 333 C83 240.27 83 147.54 83 52 C55.61 52 28.22 52 0 52 C0 34.84 0 17.68 0 0 Z " fill="#DC2828" transform="translate(612,126)"/>
<path d="M0 0 C13.427 -0.103 26.854 -0.206 40.688 -0.312 C44.882 -0.358 49.076 -0.404 53.397 -0.45 C58.634 -0.473 58.634 -0.473 61.108 -0.477 C62.788 -0.485 64.467 -0.502 66.146 -0.528 C86.542 -0.825 107.605 2.134 122.965 16.711 C136.312 30.705 141.422 47.982 141.368 67.025 C140.943 83.71 134.957 99.804 123.25 111.887 C106.983 127.165 87.807 129.641 66.406 129.391 C64.695 129.385 62.984 129.381 61.272 129.378 C55.015 129.358 48.757 129.302 42.5 129.25 C28.475 129.168 14.45 129.085 0 129 C0 86.43 0 43.86 0 0 Z " fill="#F3F0ED" transform="translate(289,612)"/>
<path d="M0 0 C17.82 0 35.64 0 54 0 C54 126.06 54 252.12 54 382 C35.52 382 17.04 382 -2 382 C-2 381.67 -2 381.34 -2 381 C15.82 381 33.64 381 52 381 C52 255.93 52 130.86 52 2 C35.17 2 18.34 2 1 2 C1 93.41 1 184.82 1 279 C0.67 279 0.34 279 0 279 C0 186.93 0 94.86 0 0 Z " fill="#D91111" transform="translate(438,127)"/>
<path d="M0 0 C149 0 149 0 157 1 C157 1.33 157 1.66 157 2 C105.52 1.67 54.04 1.34 1 1 C1 126.07 1 251.14 1 380 C18.82 380 36.64 380 55 380 C55 331.49 55 282.98 55 233 C55.66 233 56.32 233 57 233 C57 282.17 57 331.34 57 382 C38.19 382 19.38 382 0 382 C0 255.94 0 129.88 0 0 Z " fill="#D91314" transform="translate(231,561)"/>
<path d="M0 0 C72.93 0 145.86 0 221 0 C221 16.5 221 33 221 50 C194.27 50 167.54 50 140 50 C140 49.34 140 48.68 140 48 C166.4 48 192.8 48 220 48 C220 32.82 220 17.64 220 2 C148.06 2 76.12 2 2 2 C2 17.18 2 32.36 2 48 C28.07 48 54.14 48 81 48 C81 48.66 81 49.32 81 50 C54.27 50 27.54 50 0 50 C0 33.5 0 17 0 0 Z " fill="#D91616" transform="translate(613,127)"/>
<path d="M0 0 C27.06 0 54.12 0 82 0 C82 92.07 82 184.14 82 279 C54.61 279 27.22 279 -1 279 C-1 278.67 -1 278.34 -1 278 C25.73 278 52.46 278 80 278 C80 186.92 80 95.84 80 2 C53.6 2 27.2 2 0 2 C0 1.34 0 0.68 0 0 Z " fill="#F4FAF8" transform="translate(612,178)"/>
<path d="M0 0 C0.99 0.33 1.98 0.66 3 1 C2.67 90.43 2.34 179.86 2 272 C1.34 272 0.68 272 0 272 C0 182.24 0 92.48 0 0 Z " fill="#F4FBF8" transform="translate(276,238)"/>
<path d="M0 0 C30.36 0 60.72 0 92 0 C92 0.33 92 0.66 92 1 C87.545 2.111 83.19 2.135 78.63 2.114 C78.208 2.114 78.208 2.114 76.075 2.114 C73.356 2.113 70.637 2.106 67.918 2.098 C66.235 2.096 64.552 2.095 62.87 2.095 C56.642 2.089 50.415 2.075 44.188 2.062 C30.266 2.042 16.344 2.021 2 2 C2 50.84 2 99.68 2 150 C1.34 150 0.68 150 0 150 C0 100.5 0 51 0 0 Z " fill="#F4FBF8" transform="translate(289,794)"/>
<path d="M0 0 C18.976 -0.047 37.953 -0.082 56.929 -0.104 C65.741 -0.114 74.553 -0.128 83.365 -0.151 C91.049 -0.171 98.733 -0.184 106.417 -0.188 C110.483 -0.191 114.548 -0.197 118.613 -0.211 C122.447 -0.225 126.281 -0.229 130.115 -0.226 C131.515 -0.227 132.915 -0.231 134.315 -0.238 C142.443 -0.281 150.061 0.194 158 2 C158 2.33 158 2.66 158 3 C131.93 2.835 131.93 2.835 0 2 C0 1.34 0 0.68 0 0 Z " fill="#F4F8F7" transform="translate(230,557)"/>
<path d="M0 0 C1.32 1.32 2.64 2.64 4 4 C3.67 4.66 3.34 5.32 3 6 C2.34 5.67 1.68 5.34 1 5 C1 95.75 1 186.5 1 280 C0.67 280 0.34 280 0 280 C0 187.6 0 95.2 0 0 Z " fill="#F0E1DE" transform="translate(275,230)"/>
<path d="M0 0 C10.049 -0.023 20.098 -0.041 30.147 -0.052 C34.814 -0.057 39.48 -0.064 44.147 -0.075 C48.653 -0.086 53.159 -0.092 57.666 -0.095 C59.382 -0.097 61.098 -0.1 62.815 -0.106 C65.225 -0.113 67.635 -0.114 70.045 -0.114 C70.749 -0.117 71.454 -0.121 72.179 -0.124 C76.563 -0.115 80.687 0.292 85 1 C85 1.66 85 2.32 85 3 C56.95 2.67 28.9 2.34 0 2 C0 1.34 0 0.68 0 0 Z " fill="#DA1919" transform="translate(289,609)"/>
<path d="M0 0 C0.33 0 0.66 0 1 0 C1.804 3.556 2.146 6.882 2.205 10.525 C2.225 11.605 2.245 12.686 2.266 13.8 C2.282 14.955 2.299 16.11 2.316 17.301 C2.337 18.492 2.358 19.684 2.379 20.911 C2.445 24.712 2.504 28.512 2.562 32.312 C2.606 34.891 2.649 37.47 2.693 40.049 C2.8 46.366 2.902 52.683 3 59 C2.34 59 1.68 59 1 59 C-0.779 47.568 -1.288 36.425 -1.206 24.868 C-1.187 22.146 -1.185 19.424 -1.186 16.701 C-1.181 14.961 -1.175 13.221 -1.168 11.48 C-1.167 10.671 -1.166 9.862 -1.165 9.028 C-1.137 5.766 -1.039 3.116 0 0 Z " fill="#DD3636" transform="translate(574,731)"/>
<path d="M0 0 C1.196 -0.012 2.393 -0.024 3.625 -0.037 C4.765 -0.039 5.904 -0.041 7.078 -0.043 C7.598 -0.045 7.598 -0.045 10.231 -0.055 C12.75 0.188 12.75 0.188 14.75 2.188 C9.305 2.352 9.305 2.352 -18.25 3.188 C-18.58 2.528 -18.91 1.867 -19.25 1.188 C-12.809 -0.02 -6.534 0.004 0 0 Z " fill="#D91516" transform="translate(722.25,553.8125)"/>
<path d="M0 0 C0.66 0 1.32 0 2 0 C2.841 3.646 3.118 7 3.098 10.738 C3.094 11.805 3.091 12.872 3.088 13.971 C3.08 15.073 3.071 16.176 3.062 17.312 C3.058 18.435 3.053 19.557 3.049 20.713 C3.037 23.475 3.021 26.238 3 29 C2.34 29.33 1.68 29.66 1 30 C0.67 20.1 0.34 10.2 0 0 Z " fill="#DA1A1A" transform="translate(429,659)"/>
<path d="M0 0 C3.01 1.333 4.876 2.744 7.062 5.188 C10.753 9.022 14.888 11.621 19.449 14.324 C21.986 15.991 23.938 17.784 26 20 C19.278 18.713 15.19 15.308 10 11 C9.251 10.473 8.502 9.946 7.73 9.402 C7.159 8.94 6.588 8.477 6 8 C6 7.34 6 6.68 6 6 C5.381 5.753 4.763 5.505 4.125 5.25 C1.649 3.794 1.049 2.622 0 0 Z " fill="#DA1919" transform="translate(664,870)"/>
<path d="M0 0 C0.99 0.33 1.98 0.66 3 1 C2.01 1.33 1.02 1.66 0 2 C-0.33 2.99 -0.66 3.98 -1 5 C-2.472 6.268 -4.003 7.468 -5.562 8.625 C-10.693 12.597 -14.869 17.015 -19 22 C-19.33 21.01 -19.66 20.02 -20 19 C-16.904 14.606 -13.148 11.213 -9.059 7.75 C-7.694 6.59 -6.352 5.402 -5.035 4.188 C-4.425 3.631 -3.816 3.074 -3.188 2.5 C-2.645 1.995 -2.102 1.489 -1.543 0.969 C-1.034 0.649 -0.525 0.329 0 0 Z " fill="#DA1B1B" transform="translate(639,581)"/>
<path d="M0 0 C0.99 0.33 1.98 0.66 3 1 C3 1.99 3 2.98 3 4 C3.66 4 4.32 4 5 4 C5.701 6.393 6.386 8.788 7.062 11.188 C7.262 11.861 7.461 12.535 7.666 13.229 C8.763 17.174 9.218 20.056 8 24 C6.476 21.136 5.409 18.344 4.492 15.234 C4.228 14.345 3.964 13.455 3.691 12.539 C3.422 11.619 3.153 10.698 2.875 9.75 C2.598 8.814 2.321 7.878 2.035 6.914 C1.353 4.61 0.675 2.306 0 0 Z " fill="#F2E6E5" transform="translate(793,655)"/>
<path d="M0 0 C3.574 0.608 5.64 2.048 8.438 4.312 C9.225 4.947 10.013 5.581 10.824 6.234 C11.542 6.817 12.26 7.4 13 8 C13.908 8.681 14.815 9.361 15.75 10.062 C18.609 12.524 20.783 14.935 23 18 C22.67 18.99 22.34 19.98 22 21 C21.709 20.655 21.709 20.655 20.234 18.91 C14.723 12.593 9.117 7.524 2.273 2.68 C1.523 2.125 0.773 1.571 0 1 C0 0.67 0 0.34 0 0 Z " fill="#DA1E1E" transform="translate(442,582)"/>
<path d="M0 0 C0.33 0.165 0.33 0.165 2 1 C3.19 4.569 3.125 7.799 3.098 11.512 C3.097 11.876 3.097 11.876 3.093 13.718 C3.088 16.042 3.075 18.364 3.062 20.688 C3.057 22.264 3.053 23.84 3.049 25.416 C3.038 29.277 3.021 33.139 3 37 C2.67 37 2.34 37 2 37 C1.975 36.193 1.95 35.385 1.924 34.553 C1.808 30.91 1.686 27.268 1.562 23.625 C1.523 22.354 1.484 21.083 1.443 19.773 C1.401 18.562 1.36 17.35 1.316 16.102 C1.28 14.981 1.243 13.86 1.205 12.706 C1 10 1 10 0 8 C-0.134 5.328 -0.043 2.677 0 0 Z " fill="#D91313" transform="translate(485,653)"/>
<path d="M0 0 C15.745 -0.185 15.745 -0.185 23 1 C23 1.66 23 2.32 23 3 C15.263 3.122 7.693 2.848 0 2 C0 1.34 0 0.68 0 0 Z " fill="#DA1C1C" transform="translate(717,605)"/>
<path d="M0 0 C0.66 0 1.32 0 2 0 C2.103 0.639 2.206 1.279 2.312 1.938 C2.539 2.618 2.766 3.299 3 4 C3.99 4.33 4.98 4.66 6 5 C7.648 6.637 7.648 6.637 9.375 8.688 C9.982 9.403 10.589 10.118 11.215 10.855 C11.509 11.209 11.509 11.209 13 13 C13.517 13.615 14.034 14.23 14.566 14.863 C15.717 16.237 16.86 17.618 18 19 C15 19 15 19 13.203 17.566 C0 4.02 0 4.02 0 0 Z " fill="#DA1C1C" transform="translate(614,896)"/>
<path d="M0 0 C0.33 0 0.66 0 1 0 C1.508 2.999 2.006 5.999 2.5 9 C2.643 9.839 2.786 10.678 2.934 11.543 C3.785 16.772 4.147 21.703 4 27 C-0.545 18.406 -0.244 9.535 0 0 Z " fill="#F4F8F6" transform="translate(635,779)"/>
<path d="M0 0 C0.66 0 1.32 0 2 0 C8.519 11.522 8.519 11.522 10 17 C9.01 17 8.02 17 7 17 C5.826 14.733 4.661 12.462 3.5 10.188 C3.166 9.545 2.832 8.902 2.488 8.24 C0.998 5.305 0 3.339 0 0 Z " fill="#F3E5E4" transform="translate(593,865)"/>
<path d="M0 0 C1.957 2.935 3.216 5.686 4.562 8.938 C4.997 9.978 5.431 11.018 5.879 12.09 C6.77 14.403 7.482 16.583 8 19 C7.01 19 6.02 19 5 19 C3.965 16.588 2.947 14.172 1.938 11.75 C1.643 11.068 1.348 10.386 1.045 9.684 C-0.483 5.98 -1.241 3.816 0 0 Z " fill="#F2E0DF" transform="translate(586,845)"/>
<path d="M0 0 C0 0.99 0 1.98 0 3 C-7.689 4.061 -15.245 4.099 -23 4 C-23 3.67 -23 3.34 -23 3 C-20.105 2.495 -17.209 1.996 -14.312 1.5 C-13.904 1.428 -13.904 1.428 -11.838 1.066 C-7.85 0.388 -4.063 -0.199 0 0 Z " fill="#F0D3D1" transform="translate(406,789)"/>
<path d="M0 0 C-2.355 2.68 -4.653 3.954 -7.938 5.312 C-8.365 5.496 -8.365 5.496 -10.527 6.426 C-13 7 -13 7 -15.316 6.105 C-15.594 5.923 -15.594 5.923 -17 5 C-13.629 3.502 -11.796 3 -8 3 C-8 2.34 -8 1.68 -8 1 C-2.25 -1.125 -2.25 -1.125 0 0 Z " fill="#F0D1D1" transform="translate(431,781)"/>
<path d="M0 0 C1.799 0.902 3.589 1.823 5.375 2.75 C5.874 3.005 5.874 3.005 8.398 4.297 C11.066 6.043 11.937 7.053 13 10 C9.21 8.573 5.729 6.838 2.188 4.875 C1.212 4.336 0.236 3.797 -0.77 3.242 C-1.506 2.832 -2.242 2.422 -3 2 C-2.01 1.34 -1.02 0.68 0 0 Z " fill="#F1D9D8" transform="translate(797,566)"/>
<path d="M0 0 C3.309 6.618 3.138 13.2 3.062 20.438 C3.058 21.264 3.053 22.091 3.049 22.943 C3.037 24.962 3.019 26.981 3 29 C2.67 29 2.34 29 2 29 C1.67 22.4 1.34 15.8 1 9 C0.34 9 -0.32 9 -1 9 C-0.67 6.03 -0.34 3.06 0 0 Z " fill="#ECB4B3" transform="translate(427,657)"/>
<path d="M0 0 C0.66 0.33 1.32 0.66 2 1 C0.882 2.339 -0.245 3.671 -1.375 5 C-1.688 5.371 -1.688 5.371 -3.273 7.25 C-3.558 7.539 -3.558 7.539 -5 9 C-5.66 9 -6.32 9 -7 9 C-7 9.66 -7 10.32 -7 11 C-8.65 11.66 -10.3 12.32 -12 13 C-10.567 9.61 -8.812 7.722 -6 5.375 C-3.923 3.627 -1.92 1.92 0 0 Z " fill="#DA1A1A" transform="translate(783,872)"/>
<path d="M0 0 C8 9.429 8 9.429 8 14 C4.119 12.538 2.959 10.681 1.188 7 C0.748 6.113 0.308 5.226 -0.145 4.312 C-0.427 3.549 -0.709 2.786 -1 2 C-0.67 1.34 -0.34 0.68 0 0 Z " fill="#F2DFDE" transform="translate(293,261)"/>
<path d="M0 0 C4.62 0 9.24 0 14 0 C14 0.66 14 1.32 14 2 C17.3 2.33 20.6 2.66 24 3 C24 3.33 24 3.66 24 4 C18.269 4.155 13.107 3.652 7.5 2.5 C6.773 2.357 6.046 2.214 5.297 2.066 C3.53 1.718 1.765 1.36 0 1 C0 0.67 0 0.34 0 0 Z " fill="#E26160" transform="translate(687,946)"/>
<path d="M0 0 C0.66 0.33 1.32 0.66 2 1 C-2.792 8.436 -2.792 8.436 -5 10 C-6.32 9.67 -7.64 9.34 -9 9 C-6.03 6.03 -3.06 3.06 0 0 Z " fill="#F2DFDF" transform="translate(674,625)"/>
<path d="M0 0 C0.33 0 0.66 0 1 0 C1.66 5.28 2.32 10.56 3 16 C2.01 15.67 1.02 15.34 0 15 C-1.002 9.654 -0.849 5.376 0 0 Z " fill="#F0D3D1" transform="translate(576,800)"/>
<path d="M0 0 C0.66 0.33 1.32 0.66 2 1 C-6.723 6.801 -6.723 6.801 -12 8 C-14.172 7.539 -14.172 7.539 -16 7 C-15.18 6.662 -14.36 6.325 -13.516 5.977 C-12.438 5.531 -11.36 5.085 -10.25 4.625 C-9.716 4.405 -9.716 4.405 -7.016 3.289 C-4 2 -4 2 -1.734 0.773 C-1.162 0.518 -0.59 0.263 0 0 Z " fill="#D91616" transform="translate(435,775)"/>
<path d="M0 0 C1.688 1.125 1.688 1.125 2.688 4.125 C0.915 3.674 -0.856 3.214 -2.625 2.75 C-3.118 2.622 -3.118 2.622 -5.613 1.977 C-8.312 1.125 -8.312 1.125 -11.312 -0.875 C-7.171 -2.256 -4.041 -1.529 0 0 Z " fill="#DE4141" transform="translate(756.3125,610.875)"/>
<path d="M0 0 C-1.558 0.678 -3.122 1.342 -4.688 2 C-5.123 2.186 -5.123 2.186 -7.324 3.125 C-10.057 4.019 -12.147 4.164 -15 4 C-15 3.34 -15 2.68 -15 2 C-13.065 1.469 -11.127 0.951 -9.188 0.438 C-8.109 0.147 -7.03 -0.143 -5.918 -0.441 C-3 -1 -3 -1 0 0 Z " fill="#DA1818" transform="translate(785,940)"/>
<path d="M0 0 C0.66 0.33 1.32 0.66 2 1 C1.771 2.462 1.516 3.92 1.25 5.375 C1.18 5.781 1.18 5.781 0.828 7.836 C0 10 0 10 -2.078 11.289 C-2.395 11.406 -2.395 11.406 -4 12 C-3.523 10.374 -3.043 8.749 -2.562 7.125 C-2.296 6.22 -2.029 5.315 -1.754 4.383 C-1 2 -1 2 0 0 Z " fill="#F0D5D4" transform="translate(648,661)"/>
<path d="M0 0 C0.33 1.32 0.66 2.64 1 4 C0.01 4.33 -0.98 4.66 -2 5 C-2.144 5.402 -2.144 5.402 -2.875 7.438 C-4 10 -4 10 -6.625 11.312 C-7.409 11.539 -8.192 11.766 -9 12 C-6 8 -3 4 0 0 Z " fill="#F2DEDD" transform="translate(839,898)"/>
<path d="M0 0 C3.851 0.537 5.318 2.116 7.75 5.062 C8.364 5.796 8.977 6.529 9.609 7.285 C10.068 7.851 10.527 8.417 11 9 C8 9 8 9 5.957 7.285 C5.249 6.552 4.542 5.818 3.812 5.062 C3.097 4.332 2.382 3.601 1.645 2.848 C0 1 0 1 0 0 Z " fill="#F1D9D9" transform="translate(666,870)"/>
<path d="M0 0 C2.161 2.161 2.716 3.521 3.688 6.375 C3.959 7.146 4.231 7.917 4.512 8.711 C5.043 11.201 4.811 12.616 4 15 C4 14.01 4 13.02 4 12 C3.34 12 2.68 12 2 12 C1.468 10.567 0.95 9.128 0.438 7.688 C0.147 6.887 -0.143 6.086 -0.441 5.262 C-1 3 -1 3 0 0 Z " fill="#DD3736" transform="translate(855,633)"/>
<path d="M0 0 C3.1 1.382 5.283 2.986 7.688 5.375 C8.289 5.96 8.891 6.545 9.512 7.148 C11.101 9.126 11.591 10.521 12 13 C7.329 9.603 3.579 5.507 0 1 C0 0.67 0 0.34 0 0 Z " fill="#D91717" transform="translate(408,625)"/>
<path d="M0 0 C2.49 2.277 4.104 4.623 5.75 7.562 C6.199 8.348 6.647 9.133 7.109 9.941 C7.403 10.621 7.697 11.3 8 12 C7.67 12.66 7.34 13.32 7 14 C6.011 12.611 5.034 11.214 4.062 9.812 C3.517 9.035 2.972 8.258 2.41 7.457 C0.954 4.92 0.404 2.878 0 0 Z " fill="#DA1919" transform="translate(364,382)"/>
<path d="M0 0 C1 4 1 4 0.004 5.703 C-0.663 6.419 -0.663 6.419 -4 10 C-4.99 9.67 -5.98 9.34 -7 9 C-4.69 6.03 -2.38 3.06 0 0 Z " fill="#F2E0DF" transform="translate(470,745)"/>
<path d="M0 0 C3.636 3.434 6.361 6.797 9 11 C8.67 11.66 8.34 12.32 8 13 C6.658 11.403 5.327 9.797 4 8.188 C3.629 7.741 3.629 7.741 1.75 5.48 C0 3 0 3 0 0 Z " fill="#DA1918" transform="translate(782,631)"/>
<path d="M0 0 C3.3 0.33 6.6 0.66 10 1 C10 1.33 10 1.66 10 2 C4.293 2.993 -1.214 3.105 -7 3 C-7 2.67 -7 2.34 -7 2 C-4.69 2 -2.38 2 0 2 C0 1.34 0 0.68 0 0 Z " fill="#DE3E3E" transform="translate(380,790)"/>
<path d="M0 0 C4.95 0 9.9 0 15 0 C15 0.99 15 1.98 15 3 C9.97 2.475 4.981 1.894 0 1 C0 0.67 0 0.34 0 0 Z " fill="#EFCCCA" transform="translate(393,562)"/>
<path d="M0 0 C1.021 0.979 2.024 1.977 3 3 C1.208 2.886 -0.584 2.759 -2.375 2.625 C-2.874 2.59 -2.874 2.59 -5.398 2.414 C-8 2 -8 2 -10 0 C-3.308 -1.369 -3.308 -1.369 0 0 Z " fill="#EEC9C7" transform="translate(754,553)"/>
<path d="M0 0 C3.096 3.509 4.742 6.492 6 11 C6.66 11 7.32 11 8 11 C7.67 11.99 7.34 12.98 7 14 C3.422 9.806 0 5.695 0 0 Z " fill="#DA1919" transform="translate(423,485)"/>
<path d="M0 0 C6 7.714 6 7.714 6 11 C5.01 10.67 4.02 10.34 3 10 C2.312 7.938 2.312 7.938 2 6 C1.34 6 0.68 6 0 6 C-1.125 2.25 -1.125 2.25 0 0 Z " fill="#F2E1E0" transform="translate(408,462)"/>
<path d="M0 0 C3.595 3.329 6.224 6.99 9 11 C5.934 10.409 5.089 10.092 2.812 7.75 C1.017 5.026 0.366 3.205 0 0 Z " fill="#DD3231" transform="translate(657,859)"/>
<path d="M0 0 C0.33 0 0.66 0 1 0 C1.847 5.081 2.09 9.848 2 15 C1.01 14.34 0.02 13.68 -1 13 C-0.67 8.71 -0.34 4.42 0 0 Z " fill="#E15453" transform="translate(634,786)"/>
<path d="M0 0 C0.99 0.33 1.98 0.66 3 1 C-0.641 4.338 -4.286 4.979 -9 6 C-8.67 5.01 -8.34 4.02 -8 3 C-5 2 -5 2 -2 3 C-2 2.34 -2 1.68 -2 1 C-1.34 0.67 -0.68 0.34 0 0 Z " fill="#F1D9D8" transform="translate(396,732)"/>
<path d="M0 0 C0.33 0 0.66 0 1 0 C0.886 2.126 0.759 4.251 0.625 6.375 C0.555 7.558 0.486 8.742 0.414 9.961 C0 13 0 13 -2 15 C-2.218 9.561 -2.104 5.129 0 0 Z " fill="#F4F9F8" transform="translate(638,699)"/>
<path d="M0 0 C4.755 0.576 7.97 2.551 12 5 C11.67 5.66 11.34 6.32 11 7 C9.351 6.216 7.706 5.422 6.062 4.625 C5.146 4.184 4.229 3.743 3.285 3.289 C1 2 1 2 0 0 Z " fill="#D91616" transform="translate(426,573)"/>
<path d="M0 0 C2.916 3.54 5.501 7.163 8 11 C7.67 11.66 7.34 12.32 7 13 C5.825 11.402 4.66 9.796 3.5 8.188 C2.85 7.294 2.201 6.401 1.531 5.48 C0 3 0 3 0 0 Z " fill="#DA1717" transform="translate(605,882)"/>
<path d="M0 0 C1.364 2.243 2.058 3.491 1.758 6.141 C1.172 8.094 0.586 10.047 0 12 C-0.66 11.34 -1.32 10.68 -2 10 C-1.758 7.617 -1.758 7.617 -1.125 4.875 C-0.921 3.965 -0.718 3.055 -0.508 2.117 C-0.34 1.419 -0.173 0.72 0 0 Z " fill="#DD3030" transform="translate(801,833)"/>
<path d="M0 0 C2.27 3.404 2.365 5.165 2.625 9.188 C2.7 10.274 2.775 11.361 2.852 12.48 C2.876 12.896 2.876 12.896 3 15 C2.01 14.34 1.02 13.68 0 13 C-0.293 9.961 -0.293 9.961 -0.188 6.375 C-0.16 5.186 -0.133 3.998 -0.105 2.773 C-0.071 1.858 -0.036 0.943 0 0 Z " fill="#E15655" transform="translate(484,639)"/>
<path d="M0 0 C2.743 3.2 4.63 6.005 6 10 C2.79 8.893 1.99 7.984 0.188 5 C-0.008 4.505 -0.008 4.505 -1 2 C-0.67 1.34 -0.34 0.68 0 0 Z " fill="#F1D7D6" transform="translate(365,387)"/>
<path d="M0 0 C4.392 1.464 4.879 3.978 7 8 C5.188 7.812 5.188 7.812 3 7 C0 2.821 0 2.821 0 0 Z " fill="#F2DDDD" transform="translate(603,884)"/>
<path d="M0 0 C2.95 3.459 5.227 6.8 7 11 C6.67 11.66 6.34 12.32 6 13 C4.992 11.401 3.994 9.796 3 8.188 C2.443 7.294 1.886 6.401 1.312 5.48 C0 3 0 3 0 0 Z " fill="#D91313" transform="translate(374,399)"/>
<path d="M0 0 C0.99 0.33 1.98 0.66 3 1 C4.188 4.062 4.188 4.062 5 7 C4.01 7 3.02 7 2 7 C0.539 4.353 0 3.106 0 0 Z " fill="#F1D9D9" transform="translate(598,875)"/>
<path d="M0 0 C3.867 3.222 4.881 6.149 6 11 C3.347 8.524 1.32 6.41 0 3 C0 2.01 0 1.02 0 0 Z " fill="#DA1718" transform="translate(597,868)"/>
<path d="M0 0 C1.979 3.636 2.525 6.884 3 11 C2.34 11 1.68 11 1 11 C-0.203 8.595 -0.101 7.05 -0.062 4.375 C-0.053 3.558 -0.044 2.74 -0.035 1.898 C-0.024 1.272 -0.012 0.645 0 0 Z " fill="#F4F8F6" transform="translate(866,667)"/>
<path d="M0 0 C2.743 3.2 4.63 6.005 6 10 C3.549 9.02 2.232 8.349 0.75 6.125 C0 4 0 4 0 0 Z " fill="#F1DCDB" transform="translate(414,473)"/>
<path d="M0 0 C0.66 0 1.32 0 2 0 C5.223 5.176 5.223 5.176 6 7 C5.67 7.99 5.34 8.98 5 10 C2 6.25 2 6.25 2 4 C1.34 3.67 0.68 3.34 0 3 C0 2.01 0 1.02 0 0 Z " fill="#F0D6D4" transform="translate(319,308)"/>
<path d="M0 0 C4.429 5.143 4.429 5.143 5 9 C4.01 8.67 3.02 8.34 2 8 C2 7.34 2 6.68 2 6 C1.34 6 0.68 6 0 6 C-1.125 2.25 -1.125 2.25 0 0 Z " fill="#F2DDDC" transform="translate(312,294)"/>
<path d="M0 0 C2.648 2.578 4.944 4.916 7 8 C3.769 7.443 1.976 6.668 0 4 C0 2.68 0 1.36 0 0 Z " fill="#F1D5D4" transform="translate(614,898)"/>
<path d="M0 0 C1.52 1.207 1.52 1.207 3 3 C3.074 5.262 3.074 5.262 2.688 7.688 C2.628 8.092 2.628 8.092 2.324 10.137 C2.217 10.752 2.11 11.366 2 12 C1.67 12 1.34 12 1 12 C0.018 7.947 -0.082 4.161 0 0 Z " fill="#E04E4E" transform="translate(579,813)"/>
<path d="M0 0 C0.33 0 0.66 0 1 0 C0.648 5.461 0.648 5.461 0 8 C-2.062 9.5 -2.062 9.5 -4 10 C-2.667 6.667 -1.333 3.333 0 0 Z " fill="#F2E4E3" transform="translate(480,726)"/>
<path d="M0 0 C4 4 4 4 4.172 6.141 C3.781 8.094 3.391 10.047 3 12 C2.67 12 2.34 12 2 12 C1.34 8.04 0.68 4.08 0 0 Z " fill="#F0D4D3" transform="translate(862,654)"/>
<path d="M0 0 C1.155 0.99 1.155 0.99 7 6 C6.01 6.33 5.02 6.66 4 7 C1.312 5.062 1.312 5.062 -1 3 C-0.67 2.01 -0.34 1.02 0 0 Z " fill="#F1D7D6" transform="translate(408,626)"/>
<path d="M0 0 C4.752 0.432 6.92 1.328 10 5 C5.599 4.497 3.288 2.912 0 0 Z " fill="#F2E1E0" transform="translate(437,577)"/>
<path d="M0 0 C3.41 0.787 6.689 1.871 10 3 C10 3.99 10 4.98 10 6 C5.569 4.792 3.019 3.483 0 0 Z " fill="#F1D7D6" transform="translate(423,569)"/>
<path d="M0 0 C3.719 0.507 6.735 1.116 10 3 C10 3.66 10 4.32 10 5 C5.599 4.497 3.288 2.912 0 0 Z " fill="#DA1818" transform="translate(790,567)"/>
<path d="M0 0 C-4.497 2.248 -8.079 2.167 -13 2 C-8.792 -0.805 -4.858 -1.682 0 0 Z " fill="#EFCDCC" transform="translate(773,946)"/>
<path d="M0 0 C-1 2 -1 2 -2.812 2.75 C-5.498 3.057 -6.725 2.381 -9 1 C-5.574 -0.618 -3.619 -1.341 0 0 Z " fill="#F1DBDA" transform="translate(423,785)"/>
<path d="M0 0 C0.536 0.227 1.072 0.454 1.625 0.688 C-3.79 3.764 -3.79 3.764 -6.75 3.375 C-7.018 3.262 -7.018 3.262 -8.375 2.688 C-2.96 -0.389 -2.96 -0.389 0 0 Z " fill="#DA1B1C" transform="translate(394.375,736.3125)"/>
<path d="M0 0 C0.66 0 1.32 0 2 0 C1.67 3.96 1.34 7.92 1 12 C0.67 12 0.34 12 0 12 C-0.196 10.564 -0.381 9.126 -0.562 7.688 C-0.667 6.887 -0.771 6.086 -0.879 5.262 C-1 3 -1 3 0 0 Z " fill="#F2E4E3" transform="translate(576,691)"/>
<path d="M0 0 C4.429 5.143 4.429 5.143 5 9 C2 8 2 8 0.812 6.188 C0 4 0 4 0 0 Z " fill="#F2DDDC" transform="translate(357,373)"/>
<path d="M0 0 C0.33 0.99 0.66 1.98 1 3 C-2.268 8.634 -2.268 8.634 -5 10 C-3.665 6.406 -2.04 3.245 0 0 Z " fill="#DA1819" transform="translate(844,887)"/>
<path d="M0 0 C0.66 0.99 1.32 1.98 2 3 C1.01 4.98 0.02 6.96 -1 9 C-1.66 9 -2.32 9 -3 9 C-2.01 6.03 -1.02 3.06 0 0 Z " fill="#DC302F" transform="translate(797,846)"/>
<path d="M0 0 C0.66 0 1.32 0 2 0 C2.33 2.64 2.66 5.28 3 8 C2.67 8.165 2.67 8.165 1 9 C0.67 6.03 0.34 3.06 0 0 Z " fill="#F1DADA" transform="translate(799,670)"/>
<path d="M0 0 C0.66 0.33 1.32 0.66 2 1 C0 4 0 4 -2.5 4.812 C-2.913 4.843 -2.913 4.843 -5 5 C-5.66 4.34 -6.32 3.68 -7 3 C-4.696 1.933 -2.36 0.936 0 0 Z " fill="#EFC7C6" transform="translate(696,612)"/>
<path d="M0 0 C0.66 0.99 1.32 1.98 2 3 C0.35 4.65 -1.3 6.3 -3 8 C-3 4.424 -1.912 2.947 0 0 Z " fill="#DD3131" transform="translate(421,711)"/>
<path d="M0 0 C0.33 0 0.66 0 1 0 C1.33 2.97 1.66 5.94 2 9 C1.01 8.67 0.02 8.34 -1 8 C-0.67 5.36 -0.34 2.72 0 0 Z " fill="#F2E4E3" transform="translate(488,694)"/>
<path d="M0 0 C3.871 0.574 6.082 2.487 9 5 C8.67 5.66 8.34 6.32 8 7 C6.664 6.025 5.331 5.045 4 4.062 C3.257 3.517 2.515 2.972 1.75 2.41 C1.173 1.945 0.595 1.479 0 1 C0 0.67 0 0.34 0 0 Z " fill="#D91313" transform="translate(442,582)"/>
</svg>
